<?xml version="1.0" encoding="UTF-8" standalone="no"?>
<svg
   xmlns:dc="http://purl.org/dc/elements/1.1/"
   xmlns:cc="http://creativecommons.org/ns#"
   xmlns:rdf="http://www.w3.org/1999/02/22-rdf-syntax-ns#"
   xmlns:svg="http://www.w3.org/2000/svg"
   xmlns="http://www.w3.org/2000/svg"
   xmlns:sodipodi="http://sodipodi.sourceforge.net/DTD/sodipodi-0.dtd"
   xmlns:inkscape="http://www.inkscape.org/namespaces/inkscape"
   id="svg"
   version="1.1"
   width="400"
   height="400"
   style="display: block;"
   sodipodi:docname="icon2.svg"
   inkscape:version="0.92.3 (unknown)">
  <metadata
     id="metadata13">
    <rdf:RDF>
      <cc:Work
         rdf:about="">
        <dc:format>image/svg+xml</dc:format>
        <dc:type
           rdf:resource="http://purl.org/dc/dcmitype/StillImage" />
        <dc:title></dc:title>
      </cc:Work>
    </rdf:RDF>
  </metadata>
  <defs
     id="defs11" />
  <sodipodi:namedview
     pagecolor="#ffffff"
     bordercolor="#666666"
     borderopacity="1"
     objecttolerance="10"
     gridtolerance="10"
     guidetolerance="10"
     inkscape:pageopacity="0"
     inkscape:pageshadow="2"
     inkscape:window-width="1280"
     inkscape:window-height="745"
     id="namedview9"
     showgrid="false"
     inkscape:zoom="0.59"
     inkscape:cx="-88.135593"
     inkscape:cy="200"
     inkscape:window-x="0"
     inkscape:window-y="0"
     inkscape:window-maximized="1"
     inkscape:current-layer="svg" />
  <circle
     id="path19"
     cx="200"
     cy="200"
     r="186.44067"
     style="fill:#ff7043;fill-opacity:1;stroke-width:1.77419353" />
  <g
     id="svgg"
     transform="translate(-0.01265487,0.58677241)">
    <path
       id="path0"
       d=""
       inkscape:connector-curvature="0"
       style="fill:#f9f9f9;fill-rule:evenodd;stroke:none" />
    <path
       id="path1"
       d=""
       inkscape:connector-curvature="0"
       style="fill:#fafafa;fill-rule:evenodd;stroke:none" />
    <path
       id="path2"
       d=""
       inkscape:connector-curvature="0"
       style="fill:#fafafa;fill-rule:evenodd;stroke:none" />
    <path
       id="path3"
       d=""
       inkscape:connector-curvature="0"
       style="fill:#fbfbfb;fill-rule:evenodd;stroke:none" />
    <path
       id="path4"
       d="M 159,51.99 C 134.827,58.348 110.355,72.462 91.85,90.719 55.373,126.705 39.254,179.69 49.415,230.2 c 4.466,22.195 14.491,44.964 26.946,61.197 19.584,25.523 41.787,42.163 70.436,52.789 11.94,4.428 13.936,4.089 16.692,-2.834 0.69,-1.733 2.722,-6.572 4.514,-10.752 7.236,-16.874 7.301,-16.514 -3.66,-20.179 -10.551,-3.528 -21.383,-8.789 -28.743,-13.96 -1.43,-1.005 -3.496,-2.435 -4.592,-3.178 -6.652,-4.515 -19.854,-17.777 -24.573,-24.684 -0.751,-1.1 -2.113,-3.079 -3.027,-4.399 -2.545,-3.677 -6.686,-11.112 -8.91,-16 -29.692,-65.238 5.613,-140.455 75.196,-160.206 10.06,-2.856 9.966,-2.282 3.532,-21.377 C 168.56,52.77 168.129,51.896 165.63,51.202 163.778,50.687 164.096,50.65 159,51.99 m 85.6,2.392 c -2.003,0.828 -1.941,0.696 -10.515,22.618 -3.551,9.08 -3.111,11.01 2.967,13.005 8.605,2.825 20.352,8.641 27.348,13.54 1.43,1.002 3.5,2.43 4.6,3.175 6.647,4.501 19.685,17.555 24.449,24.48 7.57,11.001 12.255,19.673 15.56,28.8 22.478,62.077 -10.195,129.339 -73.002,150.285 -10.806,3.604 -10.645,2.8 -4.342,21.711 5.833,17.499 5.617,17.278 14.31,14.66 33.631,-10.126 63.793,-33.063 83.271,-63.323 27.572,-42.834 31.943,-95.073 12.044,-143.933 -1.196,-2.937 -8.32,-16.768 -9.89,-19.2 C 313.353,92.235 294.932,75.446 267.6,62.053 255.37,56.06 247.162,53.322 244.6,54.382 M 178,98.796 c -20.72,3.559 -45.094,18.564 -58.818,36.209 C 73.522,193.709 99.3,277.033 170,299.269 c 7.053,2.218 9.977,1.92 11.549,-1.177 2.731,-5.378 14.338,-34.392 15.239,-38.092 0.865,-3.547 0.709,-3.118 3.709,-10.2 1.305,-3.08 3.788,-9.11 5.52,-13.4 6.268,-15.535 15.729,-38.505 18.615,-45.2 0.996,-2.31 5.774,-14.1 10.618,-26.2 4.844,-12.1 8.965,-22.162 9.158,-22.359 0.542,-0.556 2.181,0.704 6.936,5.332 29.915,29.109 29.918,76.843 0.008,105.631 -3.785,3.643 -10.989,9.196 -11.93,9.196 -0.247,0 -2.683,-6.49 -5.413,-14.423 C 228.436,232.185 228.336,232 225.127,232 c -2.79,0 -3.292,0.674 -6.703,9 -1.622,3.96 -3.996,9.654 -5.274,12.653 -3.602,8.45 -3.611,8.623 -0.835,16.747 0.865,2.53 1.775,5.895 2.023,7.478 0.266,1.69 1.51,5.569 3.017,9.4 1.411,3.587 2.772,7.294 3.025,8.238 1.729,6.456 9.557,5.543 26.633,-3.107 62.571,-31.693 76.042,-116.27 26.413,-165.829 -14.133,-14.113 -41.109,-28.501 -47.387,-25.274 -1.816,0.933 -8.661,16.441 -9.987,22.626 -0.236,1.101 -1.713,5.212 -3.283,9.135 -1.569,3.923 -3.631,9.203 -4.582,11.733 -0.95,2.53 -2.259,5.95 -2.909,7.6 -2.989,7.59 -10.235,25.719 -11.431,28.6 -0.73,1.76 -2.073,5.09 -2.984,7.4 -5.85,14.836 -10.45,26.411 -16.848,42.4 -4.005,10.01 -8.501,21.26 -9.991,25 -3.222,8.088 -2.787,7.875 -8.07,3.956 -36.103,-26.781 -39.791,-79.362 -7.797,-111.174 6.165,-6.131 15.685,-13.008 16.401,-11.85 0.119,0.192 2.751,7.441 5.85,16.109 6.841,19.134 6.837,19.127 10.498,18.635 2.047,-0.274 2.917,-1.25 4.246,-4.761 1.097,-2.895 5.518,-13.986 8.255,-20.706 2.736,-6.719 2.741,-7.372 0.1,-15.257 -1.206,-3.604 -2.598,-8.442 -3.093,-10.752 -0.901,-4.205 -4.198,-14.897 -5.612,-18.194 -1.165,-2.72 -3.215,-3.626 -6.802,-3.01 m 171.067,75.779 c 0,0.303 -0.303,0.436 -0.734,0.323 -0.403,-0.105 -0.733,-0.312 -0.733,-0.46 0,-0.147 0.33,-0.293 0.733,-0.323 0.404,-0.03 0.734,0.177 0.734,0.46"
       inkscape:connector-curvature="0"
       style="fill:#ffffff;fill-rule:evenodd;stroke:none" />
  </g>
</svg>
