<svg id="svg" version="1.1" width="400" height="400" xmlns="http://www.w3.org/2000/svg" xmlns:xlink="http://www.w3.org/1999/xlink" style="display: block;"><g id="svgg"><path id="path0" d="" stroke="none" fill="#f9f9f9" fill-rule="evenodd"></path><path id="path1" d="" stroke="none" fill="#fafafa" fill-rule="evenodd"></path><path id="path2" d="" stroke="none" fill="#fafafa" fill-rule="evenodd"></path><path id="path3" d="" stroke="none" fill="#fbfbfb" fill-rule="evenodd"></path><path id="path4" d="M159.000 51.990 C 134.827 58.348,110.355 72.462,91.850 90.719 C 55.373 126.705,39.254 179.690,49.415 230.200 C 53.881 252.395,63.906 275.164,76.361 291.397 C 95.945 316.920,118.148 333.560,146.797 344.186 C 158.737 348.614,160.733 348.275,163.489 341.352 C 164.179 339.619,166.211 334.780,168.003 330.600 C 175.239 313.726,175.304 314.086,164.343 310.421 C 153.792 306.893,142.960 301.632,135.600 296.461 C 134.170 295.456,132.104 294.026,131.008 293.283 C 124.356 288.768,111.154 275.506,106.435 268.599 C 105.684 267.499,104.322 265.520,103.408 264.200 C 100.863 260.523,96.722 253.088,94.498 248.200 C 64.806 182.962,100.111 107.745,169.694 87.994 C 179.754 85.138,179.660 85.712,173.226 66.617 C 168.560 52.770,168.129 51.896,165.630 51.202 C 163.778 50.687,164.096 50.650,159.000 51.990 M244.600 54.382 C 242.597 55.210,242.659 55.078,234.085 77.000 C 230.534 86.080,230.974 88.010,237.052 90.005 C 245.657 92.830,257.404 98.646,264.400 103.545 C 265.830 104.547,267.900 105.975,269.000 106.720 C 275.647 111.221,288.685 124.275,293.449 131.200 C 301.019 142.201,305.704 150.873,309.009 160.000 C 331.487 222.077,298.814 289.339,236.007 310.285 C 225.201 313.889,225.362 313.085,231.665 331.996 C 237.498 349.495,237.282 349.274,245.975 346.656 C 279.606 336.530,309.768 313.593,329.246 283.333 C 356.818 240.499,361.189 188.260,341.290 139.400 C 340.094 136.463,332.970 122.632,331.400 120.200 C 313.353 92.235,294.932 75.446,267.600 62.053 C 255.370 56.060,247.162 53.322,244.600 54.382 M178.000 98.796 C 157.280 102.355,132.906 117.360,119.182 135.005 C 73.522 193.709,99.300 277.033,170.000 299.269 C 177.053 301.487,179.977 301.189,181.549 298.092 C 184.280 292.714,195.887 263.700,196.788 260.000 C 197.653 256.453,197.497 256.882,200.497 249.800 C 201.802 246.720,204.285 240.690,206.017 236.400 C 212.285 220.865,221.746 197.895,224.632 191.200 C 225.628 188.890,230.406 177.100,235.250 165.000 C 240.094 152.900,244.215 142.838,244.408 142.641 C 244.950 142.085,246.589 143.345,251.344 147.973 C 281.259 177.082,281.262 224.816,251.352 253.604 C 247.567 257.247,240.363 262.800,239.422 262.800 C 239.175 262.800,236.739 256.310,234.009 248.377 C 228.436 232.185,228.336 232.000,225.127 232.000 C 222.337 232.000,221.835 232.674,218.424 241.000 C 216.802 244.960,214.428 250.654,213.150 253.653 C 209.548 262.103,209.539 262.276,212.315 270.400 C 213.180 272.930,214.090 276.295,214.338 277.878 C 214.604 279.568,215.848 283.447,217.355 287.278 C 218.766 290.865,220.127 294.572,220.380 295.516 C 222.109 301.972,229.937 301.059,247.013 292.409 C 309.584 260.716,323.055 176.139,273.426 126.580 C 259.293 112.467,232.317 98.079,226.039 101.306 C 224.223 102.239,217.378 117.747,216.052 123.932 C 215.816 125.033,214.339 129.144,212.769 133.067 C 211.200 136.990,209.138 142.270,208.187 144.800 C 207.237 147.330,205.928 150.750,205.278 152.400 C 202.289 159.990,195.043 178.119,193.847 181.000 C 193.117 182.760,191.774 186.090,190.863 188.400 C 185.013 203.236,180.413 214.811,174.015 230.800 C 170.010 240.810,165.514 252.060,164.024 255.800 C 160.802 263.888,161.237 263.675,155.954 259.756 C 119.851 232.975,116.163 180.394,148.157 148.582 C 154.322 142.451,163.842 135.574,164.558 136.732 C 164.677 136.924,167.309 144.173,170.408 152.841 C 177.249 171.975,177.245 171.968,180.906 171.476 C 182.953 171.202,183.823 170.226,185.152 166.715 C 186.249 163.820,190.670 152.729,193.407 146.009 C 196.143 139.290,196.148 138.637,193.507 130.752 C 192.301 127.148,190.909 122.310,190.414 120.000 C 189.513 115.795,186.216 105.103,184.802 101.806 C 183.637 99.086,181.587 98.180,178.000 98.796 M349.067 174.575 C 349.067 174.878,348.764 175.011,348.333 174.898 C 347.930 174.793,347.600 174.586,347.600 174.438 C 347.600 174.291,347.930 174.145,348.333 174.115 C 348.737 174.085,349.067 174.292,349.067 174.575 " stroke="none" fill="#ffffff" fill-rule="evenodd"></path></g></svg>